<svg xmlns="http://www.w3.org/2000/svg" xmlns:xlink="http://www.w3.org/1999/xlink" width="2000" height="842" viewBox="0 0 2000 842">
  <defs>
    <style>
      .cls-1 {
        fill: url(#linear-gradient);
      }

      .cls-2 {
        fill: #fff;
      }

      .cls-2, .cls-3 {
        fill-rule: evenodd;
      }

      .cls-3 {
        fill: #ff7100;
      }
    </style>
    <linearGradient id="linear-gradient" x1="385" y1="804.625" x2="385" y2="34" gradientUnits="userSpaceOnUse">
      <stop offset="0" stop-color="#ff0"/>
      <stop offset="0.064" stop-color="#ff0"/>
      <stop offset="0.295" stop-color="#ffba00"/>
      <stop offset="0.572" stop-color="#ff7e00"/>
      <stop offset="0.772" stop-color="#ff3202"/>
      <stop offset="1" stop-color="#ff3202"/>
    </linearGradient>
  </defs>
  <circle id="sunset" class="cls-1" cx="385" cy="419.313" r="385"/>
  <path id="island" class="cls-2" d="M118.708,874S354.35,483.706,767.433,825.193c0,0-206.436-53.48-266.291-23.12L677.6,836.11S430.161,847.711,118.708,874Z"/>
  <path id="palm_tree_2" data-name="palm tree 2" class="cls-2" d="M485.975,730.642c0-6.6,75.771-196.237,75.771-196.237s69.183,21.437,70.83,85.75c1.409,55.022,29.65-69.26-21.414-107.188,0,0,98.833,24.736,85.655,72.558,0,0,84.008-120.38-82.36-128.626,0,0,95.538-61.014,90.6-105.539,0,0-92.243-4.947-126.835,70.909,0,0-23.061-47.822-100.479-80.8,0,0,39.533,54.419,46.121,102.241,0,0-97.185-23.087-107.068-75.856,0,0-19.767,79.154,116.952,155.01L429.97,714.151S485.975,737.238,485.975,730.642Z"/>
  <path id="palm_tree_1" data-name="palm tree 1" class="cls-2" d="M365.656,706.758c-4.591-4.732-82.232-193.613-82.232-193.613s64.544-32.882,110.488,12.1c39.306,38.483-26.938-70.361-89.963-61.946,0,0,88.107-51.2,111.939-7.7,0,0-23.528-144.948-148.6-34.81,0,0,26.062-110.408-8.472-138.9,0,0-69.608,60.8-41.623,139.337,0,0-49.826-18.215-128.312,12.132,0,0,66.232,11.457,104.242,41.163,0,0-85.777,51.233-129.594,20.277,0,0,40.913,70.564,191.775,29.605l58.7,209.6S370.247,711.489,365.656,706.758Z"/>
  <path id="Safari_Agence" data-name="Safari Agence" class="cls-3" d="M843.838,451.432q-0.586-.78-12.988-16.406-7.032-8.691-7.032-14.648,0-6.64,6.348-10.352a23.129,23.129,0,0,1,12.3-3.223,19.759,19.759,0,0,1,2.832.293,19.4,19.4,0,0,0,2.636.293,1.512,1.512,0,0,0,1.758-1.66,2.3,2.3,0,0,0-.293-0.976q-9.279-18.652-11.816-25.782-0.879-2.343-2.344-2.343-0.585,0-1.66.1-19.629,2.929-33.1,12.7-16.506,11.817-16.5,29.687a39.765,39.765,0,0,0,6.738,22.461q0.975,1.465,12.5,14.746,6.639,7.815,6.641,14.16,0,9.961-10.157,15.039-4.592,2.248-18.75,5.469a1.459,1.459,0,0,0-1.465,1.367q0,3.029,7.715,16.748t9.961,13.721a10.969,10.969,0,0,0,1.27-.1q21-3.418,35.644-15.918,16.7-14.159,16.7-33.984,0-10.643-6.933-21.387h0Zm123.73-19.922a17.331,17.331,0,0,0,.293-2.05A1.846,1.846,0,0,0,966.4,427.9a139.7,139.7,0,0,0-13.867-3.32q-10.158-2.051-13.769-2.051-1.563,0-2.686,4.736t-2,4.737a1.027,1.027,0,0,1-.683-0.489q-8.887-10.74-24.219-10.742-22.071,0-34.766,14.258Q862.2,448.8,862.2,471.354q0,19.533,11.817,33.594,12.5,15.041,31.543,15.039,12.5,0,23.437-11.035a9.019,9.019,0,0,1,2.051-1.66q0.879,0.1,1.514,5.713t2.49,5.615q15.623,0,27.734-.879,3.417-.292,3.418-4.2,0-7.421-.879-22.266t-0.879-22.363a214.672,214.672,0,0,1,3.125-37.4h0Zm-39.843,51.807a18.114,18.114,0,0,1-13.575,5.42,17.765,17.765,0,0,1-13.281-5.664A18.846,18.846,0,0,1,895.4,469.5q0-8.4,5.176-13.77t13.574-5.371q8.4,0,13.623,5.42A20.685,20.685,0,0,1,927.725,483.317Zm116.115-42.383q-0.1-9.228-.1-13.818c0-1.431-.98-2.148-2.93-2.148s-4.85.065-8.69,0.195-6.68.195-8.5,0.195a36.2,36.2,0,0,1-.49-6.055q0-10.252,3.23-13.769,1.845-2.051,9.86-2.93,6.93-.681,6.93-3.027a25.753,25.753,0,0,0-.87-5.567q-1.185-4.687-1.27-5.468-1.47-8.592-2.25-12.989-0.39-1.172-2.34-1.171-29.01,0-42,15.136-6.544,7.617-6.543,24.414,0,4.395.488,12.207-3.42.2-6.738,0.489-3.712.783-3.711,4.394,0,16.212.879,24.707,0.1,1.563,2.832,1.563,0.683,0,2.2-.1c1.009-.064,1.741-0.1,2.2-0.1q3.906,0,3.907,2.832v53.809a3.645,3.645,0,0,0,3.32,4q3.318,0.586,14.358.586,13.275,0,16.6-.391,2.73-.293,2.73-2.343,0-6.933-.68-19.336-0.78-13.77-.88-19.336-0.285-13.086-.59-20.411,6.06,0.587,16.61.586c1.69,0,2.54-.781,2.54-2.343Q1043.94,450.163,1043.84,440.934Zm111.91-9.424a16.193,16.193,0,0,0,.29-2.05,1.836,1.836,0,0,0-1.46-1.563,139.52,139.52,0,0,0-13.87-3.32q-10.155-2.051-13.77-2.051-1.56,0-2.68,4.736t-2,4.737a1.029,1.029,0,0,1-.69-0.489q-8.88-10.74-24.22-10.742-22.065,0-34.76,14.258-12.21,13.77-12.21,36.328,0,19.533,11.82,33.594,12.495,15.041,31.54,15.039,12.495,0,23.44-11.035a8.955,8.955,0,0,1,2.05-1.66c0.58,0.065,1.09,1.97,1.51,5.713s1.25,5.615,2.49,5.615q15.63,0,27.74-.879,3.4-.292,3.41-4.2,0-7.421-.87-22.266t-0.88-22.363a215.072,215.072,0,0,1,3.12-37.4h0Zm-39.84,51.807a18.12,18.12,0,0,1-13.58,5.42,17.77,17.77,0,0,1-13.28-5.664,18.876,18.876,0,0,1-5.47-13.574q0-8.4,5.18-13.77t13.57-5.371q8.4,0,13.63,5.42A20.7,20.7,0,0,1,1115.91,483.317Zm120.7-34.033c-0.06-3.125-.1-5.631-0.1-7.52q0.1-2.439.69-8.007a76.143,76.143,0,0,0,.58-8.008q0-2.345-5.47-2.344-8.685,0-18.06,5.127t-8.01,5.127c-0.85,0-1.43-2.051-1.76-6.152s-1.07-6.153-2.24-6.153q-0.495,0-15.92,3.028-10.35,1.563-15.72,2.148a1.917,1.917,0,0,0-1.47,1.953,6.434,6.434,0,0,0,.2,1.465q4.185,14.846,4.2,37.793,0,7.813-.1,23.389t-0.1,23.388q0,2.833,3.22,3.223a148.482,148.482,0,0,0,14.85.586q9.66,0,14.35-.391c2.15-.2,3.22-1.074,3.22-2.636q0-2.733-.39-8.35t-0.39-8.447q0-4.2-.14-12.744t-0.15-12.745q0-7.713,2.93-10.254t11.04-2.539c1.17,0,2.94.083,5.32,0.245s4.18,0.244,5.42.244q4.2,0,4.2-3.809,0-1.854-.2-7.617h0Zm44.34-61.328a20.086,20.086,0,0,0-13.19-4.59,20.655,20.655,0,0,0-13.38,4.492,16.3,16.3,0,0,0-.19,25.195q5.37,4.3,13.57,4.3,19.14,0,19.14-16.992a15.349,15.349,0,0,0-5.95-12.4h0Zm5.56,40.82c0.13-.976.2-1.594,0.2-1.855q0-1.953-2.34-1.953c-1.89,0-4.73.163-8.5,0.488s-6.61.488-8.5,0.488-4.7-.195-8.44-0.586-6.53-.586-8.35-0.586q-2.64,0-2.64,1.953c0,0.327.06,1.01,0.19,2.051q2.16,16.407,2.15,44.141,0,6.837-.29,20.361t-0.29,20.264a11.253,11.253,0,0,0,.19,2.929q0.495,0.879,2.64,1.27,3.315,0.586,15.04.586,11.625,0,14.94-.586c1.63-.259,2.44-1.074,2.44-2.441q0-7.032-.29-21.143t-0.29-21.24a399.4,399.4,0,0,1,2.14-44.141h0Zm172.95,23.438q-23.145-60.058-27.93-70.313-1.56-3.222-3.41-3.223c-1.7,0-4.25.115-7.67,0.342s-6.01.342-7.76,0.342q-2.745,0-8.26-.488c-3.68-.325-6.39-0.489-8.15-0.489q-1.56,0-2.74,3.711-2.04,6.445-25.97,71.192-22.08,59.863-22.07,62.4,0,2.833,14.94,2.832,18.945,0,22.27-.781,2.625-.683,4.49-8.789,2.04-8.886,3.71-10.449,1.065-.879,17.67-0.879,24.615,0,26.18.683,1.845,0.978,5.17,15.039a5.274,5.274,0,0,0,4.2,4.395q4,0.78,17.97.781,15.24,0,18.16-.781c1.63-.455,2.45-1.27,2.45-2.441q0-2.637-23.25-63.086h0Zm-39.55-7.911q4.5,14.553,4.49,17.774a3.821,3.821,0,0,1-.19,1.367c-0.46,1.042-2.83,1.563-7.13,1.563q-6.93,0-9.96-.2-5.865-.193-5.86-1.953,0-2.637,5.27-17.871,4.89-14.355,6.94-18.652,2.04,3.906,6.44,17.968h0Zm169.24,36.036q-0.105-8.007-.1-12.012,0-6.738.44-20.117t0.44-20.117a2.415,2.415,0,0,0-1.66-2.54q-0.585-.194-15.92-1.806t-16.89-1.612q-1.755,0-1.76,7.813c0,2.344-.29,3.516-0.88,3.516-0.39,0-1.11-.716-2.15-2.149q-7.815-10.546-22.55-10.547-18.465,0-29.89,12.793-10.935,12.3-10.94,30.957,0,18.557,11.43,31.25,11.82,13.184,30.18,13.184,15.615,0,25.58-9.375v6.543q0,6.35-8.4,10.547a30.585,30.585,0,0,1-13.96,3.515q-12.8,0-27.83-7.422a4.314,4.314,0,0,0-1.08-.39c-0.97,0-1.69.912-2.15,2.734q-4.2,17.286-4.19,19.141,0,4.491,18.06,7.812,14.16,2.637,22.36,2.637,28.125,0,40.24-12.4,11.715-12.111,11.72-39.942Q1589.25,488.348,1589.15,480.339Zm-38.43-2.637a15.276,15.276,0,0,1-11.86,5.273,15.485,15.485,0,0,1-11.77-5.175,17.42,17.42,0,0,1-4.83-12.305,18.123,18.123,0,0,1,4.73-12.451,15.984,15.984,0,0,1,23.73-.1A18.532,18.532,0,0,1,1550.72,477.7Zm131.79-45.508a42.432,42.432,0,0,0-31.84-13.672q-22.26,0-35.74,14.844-13.08,14.355-13.08,36.816,0,23.049,14.64,36.817,14.265,13.575,37.5,13.574,25.11,0,37.02-12.793a4.553,4.553,0,0,0,1.46-2.246q0-2.441-4.83-11.426-4.845-8.983-6.89-9.961-3.7,2.344-7.42,4.688a36.9,36.9,0,0,1-17.48,4.687,29.257,29.257,0,0,1-12.89-2.734q-6.93-3.32-8.3-9.668,22.845-1.758,34.37-3.027,19.14-1.953,20.22-2.149,6.345-1.367,6.35-11.23A45.444,45.444,0,0,0,1682.51,432.194Zm-24.32,28.125q-15.225,2.247-22.46,2.246-2.73,0-2.73-2.637a17.761,17.761,0,0,1,3.71-11.23,12.321,12.321,0,0,1,10.16-5.176,13.575,13.575,0,0,1,10.25,4.59,15.127,15.127,0,0,1,4.3,10.645c0,0.717-1.08,1.237-3.23,1.562h0Zm145.12,35.6q-0.105-12.647-.1-18.994V445.768q0-12.012-9.27-18.75-8.31-5.859-20.71-5.859-8.685,0-20.26,6.787t-10.5,6.787q-1.08,0-1.66-6.592t-1.66-6.591q-1.95,0-17.48,3.027-10.26,1.464-16.41,2.148a2.146,2.146,0,0,0-1.46,2.149,6.953,6.953,0,0,0,.19,1.465q3.81,13.868,3.81,38.183,0,7.716-.09,23.047-0.105,15.333-.1,22.949,0,2.736,3.02,3.223,3.42,0.586,14.85.586,10.545,0,13.96-.391,3.03-.389,3.03-3.613V461.589q0-3.612,5.47-7.325,5.07-3.318,8.89-3.32,11.61,0,11.62,13.379,0,3.614.19,10.791t0.2,10.791q0,4.688-.3,13.965t-0.29,13.867q0,3.42,2.93,4t15.24,0.586q11.52,0,14.25-.391a2.794,2.794,0,0,0,2.74-3.027Q1803.41,508.563,1803.31,495.915Zm82.76-44.483q0.84-2.051,3.57-11.914,2.925-10.254,2.93-11.523c0-.845-0.85-1.724-2.54-2.637q-11.04-6.249-25.59-6.25-21.375,0-35.4,14.6-14.01,14.6-14.01,35.986,0,21.584,13.96,36.035t35.45,14.453a74.445,74.445,0,0,0,15.14-2.05q12.105-2.637,12.11-6.348t-2.25-15.039c-1.75-8.267-3.19-12.4-4.29-12.4a47.124,47.124,0,0,1-5.08,2.2,25.914,25.914,0,0,1-9.67,2.2q-9.075,0-14.75-5.127-5.655-5.127-5.66-14.111,0-8.691,5.18-13.916t13.86-5.225a38.244,38.244,0,0,1,9.43,1.563q5.8,1.563,5.91,1.562C1884.95,453.483,1885.52,452.8,1886.07,451.432Zm93.22-19.238a42.432,42.432,0,0,0-31.84-13.672q-22.26,0-35.74,14.844-13.1,14.355-13.09,36.816,0,23.049,14.65,36.817,14.265,13.575,37.5,13.574,25.1,0,37.01-12.793a4.522,4.522,0,0,0,1.47-2.246q0-2.441-4.84-11.426t-6.88-9.961q-3.72,2.344-7.42,4.688a36.9,36.9,0,0,1-17.48,4.687,29.257,29.257,0,0,1-12.89-2.734q-6.945-3.32-8.3-9.668,22.845-1.758,34.37-3.027,19.14-1.953,20.22-2.149,6.345-1.367,6.34-11.23A45.435,45.435,0,0,0,1979.29,432.194Zm-24.32,28.125q-15.24,2.247-22.46,2.246-2.73,0-2.73-2.637a17.761,17.761,0,0,1,3.71-11.23,12.317,12.317,0,0,1,10.15-5.176,13.6,13.6,0,0,1,10.26,4.59,15.117,15.117,0,0,1,4.29,10.645c0,0.717-1.07,1.237-3.22,1.562h0Z"/>
</svg>
