<svg xmlns="http://www.w3.org/2000/svg" width="787.661" height="590.746" viewBox="0 0 1024 768">
  <defs>
    <style>
      .cls-1 {
        fill: #0074a1;
      }

      .cls-1, .cls-2 {
        fill-rule: evenodd;
      }

      .cls-2 {
        fill: #fff;
      }
    </style>
  </defs>
  <path class="cls-1" d="M96.711,707.319c-64.43-123.176-77.5-269.256-25.572-400.514C136.905,140.551,297.546,23.338,486.716,5.689c146.415-6.836,288.446,53.4,384.556,164.321C964.13,277.178,1004.21,420.234,981.649,560.04c0,0-70.362-36.728-125.787,42.982,0,0-42.689-9.086-80.277,17.067,0,0-153.713-48.089-207.96,133.373,0,0-41.071-14.532-59.418,14.538,0,0-30.961-82.317-147.911-60.681,0,0-104.546-181.5-210.489-6.954C149.807,700.365,115.362,680.559,96.711,707.319Z"/>
  <path class="cls-2" d="M492.491,305.968L401,302.143,508.236,433.9l-213.2,29.752L238.749,397.7a69.337,69.337,0,0,0-30.6-8.481,71.418,71.418,0,0,0-47.6,16.4L282.269,548.662s469.2-87.3,550.236-147.486,22.157-93.007-48.513-66.73S616.751,388,616.751,388Z"/>
</svg>
